<?xml version="1.0" encoding="UTF-8" standalone="no"?>
<svg
   version="1.2"
   width="38.175556mm"
   height="20.473759mm"
   viewBox="0 0 21.724 11.648576"
   id="svg16"
   sodipodi:docname="quartal_sus4_stacked.svg"
   xmlns:inkscape="http://www.inkscape.org/namespaces/inkscape"
   xmlns:sodipodi="http://sodipodi.sourceforge.net/DTD/sodipodi-0.dtd"
   xmlns="http://www.w3.org/2000/svg"
   xmlns:svg="http://www.w3.org/2000/svg">
  <defs
     id="defs16" />
  <sodipodi:namedview
     id="namedview16"
     pagecolor="#ffffff"
     bordercolor="#000000"
     borderopacity="0.25"
     inkscape:showpageshadow="2"
     inkscape:pageopacity="0.0"
     inkscape:pagecheckerboard="0"
     inkscape:deskcolor="#d1d1d1"
     inkscape:document-units="mm" />
  <style
     type="text/css"
     id="style1"><![CDATA[
tspan { white-space: pre; }
]]></style>
  <g
     transform="translate(0,2.3587585)"
     id="g1">
    <rect
       x="13.587"
       y="-0.1"
       width="2.6275001"
       height="0.2"
       ry="0.1"
       fill="currentColor"
       id="rect1" />
  </g>
  <g
     transform="translate(0,7.3587585)"
     id="g2">
    <line
       stroke-linejoin="round"
       stroke-linecap="round"
       stroke-width="0.1"
       stroke="currentColor"
       x1="0.050000001"
       y1="0"
       x2="21.674"
       y2="0"
       id="line1" />
  </g>
  <g
     transform="translate(0,6.3587585)"
     id="g3">
    <line
       stroke-linejoin="round"
       stroke-linecap="round"
       stroke-width="0.1"
       stroke="currentColor"
       x1="0.050000001"
       y1="0"
       x2="21.674"
       y2="0"
       id="line2" />
  </g>
  <g
     transform="translate(0,5.3587585)"
     id="g4">
    <line
       stroke-linejoin="round"
       stroke-linecap="round"
       stroke-width="0.1"
       stroke="currentColor"
       x1="0.050000001"
       y1="0"
       x2="21.674"
       y2="0"
       id="line3" />
  </g>
  <g
     transform="translate(0,4.3587585)"
     id="g5">
    <line
       stroke-linejoin="round"
       stroke-linecap="round"
       stroke-width="0.1"
       stroke="currentColor"
       x1="0.050000001"
       y1="0"
       x2="21.674"
       y2="0"
       id="line4" />
  </g>
  <g
     transform="translate(0,3.3587585)"
     id="g6">
    <line
       stroke-linejoin="round"
       stroke-linecap="round"
       stroke-width="0.1"
       stroke="currentColor"
       x1="0.050000001"
       y1="0"
       x2="21.674"
       y2="0"
       id="line5" />
  </g>
  <g
     transform="translate(5.8,6.3587585)"
     id="g7">
    <path
       transform="scale(0.004,-0.004)"
       d="m 213,112 c -45,0 -69,-34 -69,-88 0,-102 89,-136 134,-136 45,0 69,34 69,88 0,102 -89,136 -134,136 z m 32,24 C 389,136 491,71 491,0 491,-71 389,-136 245,-136 101,-136 0,-71 0,0 0,71 101,136 245,136 Z"
       fill="currentColor"
       id="path6" />
  </g>
  <g
     transform="translate(5.8,4.8587585)"
     id="g8">
    <path
       transform="scale(0.004,-0.004)"
       d="m 213,112 c -45,0 -69,-34 -69,-88 0,-102 89,-136 134,-136 45,0 69,34 69,88 0,102 -89,136 -134,136 z m 32,24 C 389,136 491,71 491,0 491,-71 389,-136 245,-136 101,-136 0,-71 0,0 0,71 101,136 245,136 Z"
       fill="currentColor"
       id="path7" />
  </g>
  <g
     transform="translate(5.8,3.3587585)"
     id="g9">
    <path
       transform="scale(0.004,-0.004)"
       d="m 213,112 c -45,0 -69,-34 -69,-88 0,-102 89,-136 134,-136 45,0 69,34 69,88 0,102 -89,136 -134,136 z m 32,24 C 389,136 491,71 491,0 491,-71 389,-136 245,-136 101,-136 0,-71 0,0 0,71 101,136 245,136 Z"
       fill="currentColor"
       id="path8" />
  </g>
  <g
     transform="translate(5.8,11.358759)"
     id="g10">
    <text
       font-family="serif"
       font-size="1.7459px"
       text-anchor="start"
       fill="currentColor"
       id="text9"><tspan
         id="tspan9">5,R,4</tspan></text>
  </g>
  <g
     transform="translate(0.8,6.3587585)"
     id="g11">
    <path
       transform="scale(0.004,-0.004)"
       d="m 266,-635 h -6 c -108,0 -195,88 -195,197 0,58 53,103 112,103 54,0 95,-47 95,-103 0,-52 -43,-95 -95,-95 -11,0 -21,2 -31,6 26,-39 68,-65 117,-65 h 4 z m 195,432 c 68,24 113,90 113,164 0,90 -66,179 -173,190 19,-89 48,-242 60,-354 z M 74,28 c 0,-145 141,-247 264,-247 1,0 47,0 82,6 -7,64 -29,203 -63,364 -79,-8 -124,-61 -124,-119 0,-44 25,-91 81,-123 5,-5 7,-10 7,-15 0,-11 -10,-22 -22,-22 -15,0 -126,62 -126,187 0,88 58,174 160,197 -14,58 -29,117 -46,175 C 180,310 74,188 74,28 Z m 176,525 c -29,96 -52,170 -52,346 0,115 55,224 149,292 6,5 14,5 20,0 68,-80 133,-245 133,-358 0,-143 -86,-255 -180,-364 21,-68 39,-138 56,-207 2,0 7,1 13,1 155,0 256,-128 256,-261 0,-113 -74,-212 -180,-246 3,-35 5,-70 5,-105 0,-19 -1,-39 -2,-58 -7,-119 -88,-225 -202,-228 l 1,43 c 93,2 153,92 159,191 1,18 2,37 2,55 0,31 -1,61 -4,92 -5,-1 -44,-8 -89,-8 C 142,-262 2,-82 2,112 2,289 133,418 250,553 Z m 178,363 c 0,34 1,66 -20,129 -99,-48 -162,-149 -162,-259 0,-52 12,-115 36,-194 80,97 146,198 146,324 z"
       fill="currentColor"
       id="path10" />
  </g>
  <g
     transform="translate(13.762,4.8587585)"
     id="g12">
    <path
       transform="scale(0.004,-0.004)"
       d="m 213,112 c -45,0 -69,-34 -69,-88 0,-102 89,-136 134,-136 45,0 69,34 69,88 0,102 -89,136 -134,136 z m 32,24 C 389,136 491,71 491,0 491,-71 389,-136 245,-136 101,-136 0,-71 0,0 0,71 101,136 245,136 Z"
       fill="currentColor"
       id="path11" />
  </g>
  <g
     transform="translate(13.762,3.3587585)"
     id="g13">
    <path
       transform="scale(0.004,-0.004)"
       d="m 213,112 c -45,0 -69,-34 -69,-88 0,-102 89,-136 134,-136 45,0 69,34 69,88 0,102 -89,136 -134,136 z m 32,24 C 389,136 491,71 491,0 491,-71 389,-136 245,-136 101,-136 0,-71 0,0 0,71 101,136 245,136 Z"
       fill="currentColor"
       id="path12" />
  </g>
  <g
     transform="translate(13.762,1.8587585)"
     id="g14">
    <path
       transform="scale(0.004,-0.004)"
       d="m 213,112 c -45,0 -69,-34 -69,-88 0,-102 89,-136 134,-136 45,0 69,34 69,88 0,102 -89,136 -134,136 z m 32,24 C 389,136 491,71 491,0 491,-71 389,-136 245,-136 101,-136 0,-71 0,0 0,71 101,136 245,136 Z"
       fill="currentColor"
       id="path13" />
  </g>
  <g
     transform="translate(13.762,11.358759)"
     id="g15">
    <text
       font-family="serif"
       font-size="1.7459px"
       text-anchor="start"
       fill="currentColor"
       id="text14"><tspan
         id="tspan14">R,4,b7</tspan></text>
  </g>
  <g
     transform="translate(12.612,1.8587585)"
     id="g16">
    <path
       transform="scale(0.004,-0.004)"
       d="m 27,41 -1,-66 v -11 c 0,-22 1,-44 4,-66 45,38 93,80 93,139 0,33 -14,67 -43,67 C 49,104 28,74 27,41 Z m -42,-179 -12,595 c 8,5 18,8 27,8 9,0 19,-3 27,-8 L 20,112 c 25,21 58,34 91,34 52,0 89,-48 89,-102 0,-80 -86,-117 -147,-169 -15,-13 -24,-38 -45,-38 -13,0 -23,11 -23,25 z"
       fill="currentColor"
       id="path15" />
  </g>
</svg>
